# xmcd
#
# Track frame offsets:
# 150
# 15324
# 28366
# 42083
# 58670
# 71297
# 92000
# 109062
# 129188
#
# Disc length: 1979 seconds
#
# Revision: 0
# Processed by: cddbd v1.4PL0 Copyright (c) Steve Scherf et al.
# Submitted via: Audion 3.0.2 (http://www.panic.com/audion/)
#
DISCID=6a07b909
DTITLE=Tracy Lee Nelson and the Native Blues Band - Commodity Blues
DYEAR=1900
DGENRE=
TTITLE0=Rez Rider
TTITLE1=Commodity Blues
TTITLE2=Cold
TTITLE3=Sovereignty
TTITLE4=Mesa Grande
TTITLE5=Wedding Day Blues
TTITLE6=Innocent
TTITLE7=La Jolla River
TTITLE8=One Step in Your Grave
EXTD=
EXTT0=
EXTT1=
EXTT2=
EXTT3=
EXTT4=
EXTT5=
EXTT6=
EXTT7=
EXTT8=
PLAYORDER=
